<?xml version="1.0" encoding="utf-8"?>
<!-- Generator: Adobe Illustrator 24.0.1, SVG Export Plug-In . SVG Version: 6.00 Build 0)  -->
<svg version="1.1" id="Camada_1" xmlns="http://www.w3.org/2000/svg" xmlns:xlink="http://www.w3.org/1999/xlink" x="0px" y="0px"
	 viewBox="0 0 512 512" style="enable-background:new 0 0 512 512;" xml:space="preserve">
<style type="text/css">
	.st0{fill:#FFFFFF;}
</style>
<g>
	<path class="st0" d="M256,0C114.6,0,0,114.6,0,256s114.6,256,256,256s256-114.6,256-256C511.8,114.7,397.3,0.2,256,0z M256,498
		C122.3,498,14,389.7,14,256S122.3,14,256,14s242,108.3,242,242C497.9,389.6,389.6,497.9,256,498z"/>
	<path class="st0" d="M256,60C147.8,60,60,147.8,60,256s87.8,196,196,196s196-87.8,196-196C451.9,147.8,364.2,60.1,256,60z M256,438
		c-100.5,0-182-81.5-182-182S155.5,74,256,74s182,81.5,182,182C437.9,356.5,356.5,437.9,256,438z"/>
	<path class="st0" d="M256,214.5c26,0,47.1-21.1,47.1-47.1c0-26-21.1-47.1-47.1-47.1s-47.1,21.1-47.1,47.1c0,0,0,0,0,0
		C208.9,193.4,230,214.5,256,214.5z M256,134.3c18.3,0,33.1,14.8,33.1,33.1c0,18.3-14.8,33.1-33.1,33.1c-18.3,0-33.1-14.8-33.1-33.1
		c0,0,0,0,0,0C222.9,149.1,237.7,134.3,256,134.3z"/>
	<path class="st0" d="M256,297.5c-26,0-47.1,21.1-47.1,47.1s21.1,47.1,47.1,47.1c26,0,47.1-21.1,47.1-47.1c0,0,0,0,0,0
		C303.1,318.6,282,297.5,256,297.5z M256,377.7c-18.3,0-33.1-14.8-33.1-33.1s14.8-33.1,33.1-33.1c18.3,0,33.1,14.8,33.1,33.1
		c0,0,0,0,0,0C289.1,362.9,274.3,377.7,256,377.7L256,377.7z"/>
	<path class="st0" d="M344.6,208.9c-26,0-47.1,21.1-47.1,47.1c0,26,21.1,47.1,47.1,47.1c26,0,47.1-21.1,47.1-47.1
		C391.7,230,370.6,208.9,344.6,208.9z M344.6,289.1c-18.3,0-33.1-14.8-33.1-33.1c0-18.3,14.8-33.1,33.1-33.1
		c18.3,0,33.1,14.8,33.1,33.1c0,0,0,0,0,0C377.7,274.3,362.9,289.1,344.6,289.1z"/>
	<path class="st0" d="M167.4,208.9c-26,0-47.1,21.1-47.1,47.1s21.1,47.1,47.1,47.1c26,0,47.1-21.1,47.1-47.1
		C214.5,230,193.4,208.9,167.4,208.9z M167.4,289.1c-18.3,0-33.1-14.8-33.1-33.1c0-18.3,14.8-33.1,33.1-33.1s33.1,14.8,33.1,33.1
		c0,0,0,0,0,0C200.5,274.3,185.7,289.1,167.4,289.1z"/>
</g>
</svg>
